# xmcd
# 
# Track frame offsets:
#     150
#     19822
#     37999
#     54144
#     72580
#     105824
#     131959
#     150405
#     169680
#     190237
#     210543
#     224905
#     244204
#     267142
#     283802
# 
# Disc length: 4081
# 
# Revision: 7
# Processed by: cddbd v1.5.2PL0 Copyright (c) Steve Scherf et al.
# Submitted via: fre:ac v1.0.31
# 
DISCID=da0fef0f
DTITLE=Various Artist - Hot Salsa
DYEAR=2006
DGENRE=Salsa
TTITLE0=J. C. Bazan - Estamos viejos
TTITLE1=Rodrigo Tobar - Proverbio del agua
TTITLE2=Pedro Sanchez - Orgullo de ti
TTITLE3=J. C. Bazan - Banana y Papaya
TTITLE4=Banda Tropical - Latin Medley
TTITLE5=Rodrigo Tobar - Camina Caminante
TTITLE6=J. C. Bazan - Cartagena
TTITLE7=Valdeci Oliveira - Soy Latina
TTITLE8=Felipe Mandingo - Te diste cuenta
TTITLE9=Adriana - Corazon Espinada
TTITLE10=Camino de Lobo - Bacuranao
TTITLE11=Valdeci Oliveira - Tempo
TTITLE12=Duke Pachanga - Te Quiero a ti
TTITLE13=J. C. Bazan - Ande Vete
TTITLE14=Valdeci Oliveira - Salsa magica
EXTD=YEAR: 2006
EXTT0=
EXTT1=
EXTT2=
EXTT3=
EXTT4=
EXTT5=
EXTT6=
EXTT7=
EXTT8=
EXTT9=
EXTT10=
EXTT11=
EXTT12=
EXTT13=
EXTT14=
PLAYORDER=
